<svg xmlns="http://www.w3.org/2000/svg" viewBox="0 0 1024 1024"><defs><linearGradient id="bg" x1="0" y1="0" x2="1" y2="1"><stop offset="0" stop-color="#9AA5F2"/><stop offset=".6" stop-color="#6B74D6"/><stop offset="1" stop-color="#5A86D8"/></linearGradient><radialGradient id="glow" cx="0.22" cy="0.12" r="0.95"><stop offset="0" stop-color="#fff" stop-opacity=".28"/><stop offset="1" stop-color="#fff" stop-opacity="0"/></radialGradient><linearGradient id="ink" x1="0" y1="0" x2="1" y2="1"><stop offset="0" stop-color="#7C86E2"/><stop offset="1" stop-color="#4E58BE"/></linearGradient><filter id="sh" x="-20%" y="-20%" width="140%" height="140%"><feDropShadow dx="0" dy="14" stdDeviation="20" flood-color="#2a3170" flood-opacity=".2"/></filter></defs><rect width="1024" height="1024" rx="228" fill="url(#bg)"/><rect width="1024" height="1024" rx="228" fill="url(#glow)"/><g transform="translate(540 512) scale(1.08) translate(-530 -490)">
<g filter="url(#sh)" fill="none" stroke="#fff" stroke-width="62" stroke-linecap="round" stroke-linejoin="round">
<path d="M190 560 C190 420 330 380 380 470 C420 545 330 620 290 560 C240 485 330 380 440 410 C540 438 520 560 450 560 C390 560 410 470 500 470 C580 470 610 512 690 512 L770 512"/>
</g><circle cx="842" cy="512" r="48" fill="#fff" filter="url(#sh)"/></g></svg>